<svg xmlns="http://www.w3.org/2000/svg" xmlns:xlink="http://www.w3.org/1999/xlink" width="1574.462" height="917.698" viewBox="0 0 1574.462 917.698">
  <defs>
    <linearGradient id="linear-gradient" x1="0.5" y1="0.282" x2="0.5" y2="0.95" gradientUnits="objectBoundingBox">
      <stop offset="0" stop-color="#3f9fa1"/>
      <stop offset="0.122" stop-color="#48a3a5" stop-opacity="0.933"/>
      <stop offset="0.334" stop-color="#63b0b3" stop-opacity="0.757"/>
      <stop offset="0.611" stop-color="#8ec6c9" stop-opacity="0.471"/>
      <stop offset="0.938" stop-color="#c9e3e6" stop-opacity="0.078"/>
      <stop offset="1" stop-color="#d5e9ed" stop-opacity="0"/>
    </linearGradient>
    <linearGradient id="linear-gradient-2" x1="0.5" y1="0.328" x2="0.5" y2="0.859" xlink:href="#linear-gradient"/>
  </defs>
  <g id="Group_274" data-name="Group 274" transform="translate(0 0)">
    <path id="Path_276" data-name="Path 276" d="M1118.473,281.877a73.408,73.408,0,0,0-94.306.656L915.176,375.175a57.612,57.612,0,0,1-82.767-8.5L584.464,46.034l2.521,912.656h847.106V542.7Z" transform="translate(-584.464 -46.034)" opacity="0.6" fill="url(#linear-gradient)" style="mix-blend-mode: multiply;isolation: isolate"/>
    <g id="Group_273" data-name="Group 273" transform="translate(849.627 76.89)">
      <path id="Path_277" data-name="Path 277" d="M1392.213,403.026l-68.071-68.071a49.916,49.916,0,0,0-70.592,0l-166.4,166.4c3.782-3.782-22.69,415.99-22.69,415.99H1789.3V76.532L1462.806,403.026A49.917,49.917,0,0,1,1392.213,403.026Z" transform="translate(-1064.464 -76.532)" opacity="0.6" fill="url(#linear-gradient-2)" style="mix-blend-mode: multiply;isolation: isolate"/>
    </g>
  </g>
</svg>
